# xmcd CD database file
#
# Track frame offsets:
#	150
#	14135
#	26135
#	39076
#	51938
#	58356
#	66475
#	76277
#	91983
#	100452
#	111323
#	117575
#	128497
#	145731
#	226937
#	237012
#
# Disc length: 3415 seconds
#
# Revision: 0
# Processed by: cddbd v1.5.2PL0 Copyright (c) Steve Scherf et al.
# Submitted via: CDex 1.70beta2
#
DISCID=e00d5510
DTITLE=Peter Thomas Sound Orchestra - Botschaft der Götter
DYEAR=1976
DGENRE=Jazz
TTITLE0=Mysteries of the gods
TTITLE1=Gamblin' ostinato
TTITLE2=Sonata of the blinding lights
TTITLE3=The eyes of the golden mask
TTITLE4=When Joshua came to Jericho
TTITLE5=The Holy Bible
TTITLE6=Gods and natives
TTITLE7=Crystal skull
TTITLE8=Mysteries of humanity
TTITLE9=Power boost
TTITLE10=The fire-breathing ships
TTITLE11=Fuga astronautica
TTITLE12=The stare of the golden mask
TTITLE13=Medley: cycles of the gods
TTITLE14=Ancestors from the stars
TTITLE15=Dankeschön für das Wiedersehen
EXTD=YEAR: 1976
EXTT0=
EXTT1=
EXTT2=
EXTT3=
EXTT4=
EXTT5=
EXTT6=
EXTT7=
EXTT8=
EXTT9=
EXTT10=
EXTT11=
EXTT12=
EXTT13=
EXTT14=
EXTT15=
PLAYORDER=
